# xmcd CD database file
#
# Track frame offsets:
#	150
#	17152
#	33059
#	50547
#	63922
#	77707
#	91638
#	101436
#	115246
#	124208
#	142061
#	152697
#	165327
#	185778
#	212464
#	236278
#
# Disc length: 3396 seconds
#
# Revision: 3
# Processed by: cddbd v1.5.2PL0 Copyright (c) Steve Scherf et al.
# Submitted via: CDex 1.70beta2
#
DISCID=c50d4210
DTITLE=Howlin' Wolf - The London Howlin Wolf Sessions [Deluxe Edition] [CD1]
DYEAR=1974
DGENRE=Blues
TTITLE0=Rockin' Daddy■f
TTITLE1=I Ain't Superstitious■f
TTITLE2=Sittin' On Top Of The World■f
TTITLE3=Worried About My Baby■f
TTITLE4=What A Woman!■f
TTITLE5=Poor Boy■f
TTITLE6=Built For Comfort■f
TTITLE7=Who's Been Talking?■f
TTITLE8=The Red Rooster (False Start And Dialog)■f
TTITLE9=The Red Rooster■f
TTITLE10=Do The Do■f
TTITLE11=Highway 49■f
TTITLE12=Wang Dang Doodle■f
TTITLE13=Goin' Down Slow■f
TTITLE14=Killing Floor■f
TTITLE15=I Want To Have A Word With You■f
EXTD=YEAR: 1974
EXTT0=
EXTT1=
EXTT2=
EXTT3=
EXTT4=
EXTT5=
EXTT6=
EXTT7=
EXTT8=
EXTT9=
EXTT10=
EXTT11=
EXTT12=
EXTT13=
EXTT14=
EXTT15=
PLAYORDER=
